HIERARCHY
ROOT joint_Root
{
	OFFSET 0.0 0.0 0.0
	CHANNELS 6 Xposition Yposition Zposition Zrotation Xrotation Yrotation 
	JOINT Hips
	{
		OFFSET 4.5925 91.4895 -427.239
		CHANNELS 6 Xposition Yposition Zposition Zrotation Xrotation Yrotation 
		JOINT Spine
		{
			OFFSET 15.7357 0.0 0.0
			CHANNELS 6 Xposition Yposition Zposition Zrotation Xrotation Yrotation 
			JOINT Chest
			{
				OFFSET 8.98455 -0.406207 0.0
				CHANNELS 6 Xposition Yposition Zposition Zrotation Xrotation Yrotation 
				JOINT Neck
				{
					OFFSET 16.3773 0.0 0.0
					CHANNELS 6 Xposition Yposition Zposition Zrotation Xrotation Yrotation 
					JOINT Head
					{
						OFFSET 6.45672 0.0 0.0
						CHANNELS 6 Xposition Yposition Zposition Zrotation Xrotation Yrotation 
						End Site
						{
							OFFSET 0.0 0.0 0.0
						}
					}
				}
				JOINT Shoulder_L
				{
					OFFSET 12.9942 -0.242716 4.98039
					CHANNELS 6 Xposition Yposition Zposition Zrotation Xrotation Yrotation 
					JOINT UpperArm_L
					{
						OFFSET 5.34809 0.0 0.0
						CHANNELS 6 Xposition Yposition Zposition Zrotation Xrotation Yrotation 
						JOINT LowerArm_L
						{
							OFFSET 24.3286 1.87007e-05 0.0
							CHANNELS 6 Xposition Yposition Zposition Zrotation Xrotation Yrotation 
							JOINT Hand_L
							{
								OFFSET 22.2916 0.0 0.0
								CHANNELS 6 Xposition Yposition Zposition Zrotation Xrotation Yrotation 
								End Site
								{
									OFFSET 0.0 0.0 0.0
								}
							}
						}
					}
				}
				JOINT Shoulder_R
				{
					OFFSET 12.9945 -0.242716 -4.98039
					CHANNELS 6 Xposition Yposition Zposition Zrotation Xrotation Yrotation 
					JOINT UpperArm_R
					{
						OFFSET -5.34813 0.0 0.0
						CHANNELS 6 Xposition Yposition Zposition Zrotation Xrotation Yrotation 
						JOINT LowerArm_R
						{
							OFFSET -24.3289 0.000322201 0.0
							CHANNELS 6 Xposition Yposition Zposition Zrotation Xrotation Yrotation 
							JOINT Hand_R
							{
								OFFSET -22.2915 -0.000108084 0.0
								CHANNELS 6 Xposition Yposition Zposition Zrotation Xrotation Yrotation 
								End Site
								{
									OFFSET 0.0 0.0 0.0
								}
							}
						}
					}
				}
			}
		}
		JOINT UpperLeg_L
		{
			OFFSET -2.19248 -6.46944 0.0
			CHANNELS 6 Xposition Yposition Zposition Zrotation Xrotation Yrotation 
			JOINT LowerLeg_L
			{
				OFFSET 39.0811 0.0 -1.23785e-05
				CHANNELS 6 Xposition Yposition Zposition Zrotation Xrotation Yrotation 
				JOINT Foot_L
				{
					OFFSET 40.9854 0.0 -1.26872e-05
					CHANNELS 6 Xposition Yposition Zposition Zrotation Xrotation Yrotation 
					JOINT Toes_L
					{
						OFFSET 11.7543 0.0 0.0
						CHANNELS 6 Xposition Yposition Zposition Zrotation Xrotation Yrotation 
						End Site
						{
							OFFSET 0.0 0.0 0.0
						}
					}
				}
			}
		}
		JOINT UpperLeg_R
		{
			OFFSET -2.19251 6.46944 0.0
			CHANNELS 6 Xposition Yposition Zposition Zrotation Xrotation Yrotation 
			JOINT LowerLeg_R
			{
				OFFSET -39.0811 -0.00228153 -0.0401928
				CHANNELS 6 Xposition Yposition Zposition Zrotation Xrotation Yrotation 
				JOINT Foot_R
				{
					OFFSET -40.9854 0.0 0.0
					CHANNELS 6 Xposition Yposition Zposition Zrotation Xrotation Yrotation 
					JOINT Toes_R
					{
						OFFSET -11.7543 0.0 0.0
						CHANNELS 6 Xposition Yposition Zposition Zrotation Xrotation Yrotation 
						End Site
						{
							OFFSET 0.0 0.0 0.0
						}
					}
				}
			}
		}
	}
}
MOTION
Frames:	5
Frame Time:	0.0333333
0.000000 0.000000 0.000000 0.000000 0.000000 -0.000000 -0.172219 90.197900 -3.016740 89.019900 -3.636490 12.035700 15.735700 0.000005 -0.000001 89.120100 77.272000 -89.479600 8.984550 -0.406207 -0.000000 17.686000 -0.414934 -0.655683 16.377300 -0.000001 -0.000001 2.759490 -2.691840 0.742151 6.456720 -0.000001 -0.000000 -3.325830 -1.784960 2.050080 12.994200 -0.242716 4.980390 -91.058300 5.806660 -79.652400 5.348090 -0.000007 -0.000001 -57.694800 34.651000 -28.313400 24.328600 0.000019 0.000005 9.015550 20.986900 -23.893300 22.291600 -0.000001 0.000005 10.039300 5.219240 2.232170 12.994500 -0.242716 -4.980390 89.328100 10.521000 -86.325100 -5.348130 -0.000001 -0.000004 -58.938800 31.126700 -22.614600 -24.328900 0.000322 -0.000009 2.869920 5.416980 -27.978700 -22.291500 -0.000108 -0.000004 17.192400 5.383400 -2.405530 -2.192480 -6.469440 -0.000000 -173.674000 -13.696700 -1.984320 39.081100 -0.000007 -0.000012 -0.192736 0.275176 35.008100 40.985400 -0.000006 -0.000013 0.378920 4.703590 -70.554700 11.754300 -0.000000 0.000003 -0.000125 -0.001241 -16.624900 -2.192510 6.469440 -0.000001 174.161000 19.801400 179.262000 -39.081100 -0.002282 -0.040193 -0.163228 0.246730 34.016000 -40.985400 0.000008 0.000006 4.646100 13.897700 -71.066200 -11.754300 -0.000006 -0.000006 -0.002430 -0.033975 -17.954700
0.000000 0.000000 0.000000 0.000000 0.000000 -0.000000 -0.147760 90.200500 -3.037370 89.027800 -3.648380 12.049700 15.735700 0.000005 -0.000001 89.081800 77.252200 -89.438400 8.984550 -0.406207 -0.000000 17.725400 -0.432148 -0.647223 16.377300 -0.000001 -0.000001 2.842790 -2.664030 0.738031 6.456720 -0.000001 -0.000000 -3.459710 -1.730890 1.998790 12.994200 -0.242716 4.980390 -91.048300 5.710450 -79.580100 5.348090 -0.000007 -0.000001 -57.444000 34.630200 -28.338200 24.328600 0.000019 0.000005 9.463860 20.588600 -25.362100 22.291600 -0.000001 0.000005 10.084600 5.224430 2.099100 12.994500 -0.242716 -4.980390 89.306100 10.502000 -86.198100 -5.348130 -0.000001 -0.000004 -58.771400 30.799500 -22.833100 -24.328900 0.000322 -0.000009 2.982890 5.306120 -29.409000 -22.291500 -0.000108 -0.000004 17.431500 5.387170 -2.524900 -2.192480 -6.469440 -0.000000 -173.698000 -13.706500 -1.982690 39.081100 -0.000007 -0.000012 -0.194226 0.277387 35.000100 40.985400 -0.000006 -0.000013 0.396861 4.694630 -70.538200 11.754300 -0.000000 0.000003 -0.000129 -0.001278 -16.626300 -2.192510 6.469440 -0.000001 174.142000 19.793000 179.253000 -39.081100 -0.002282 -0.040193 -0.161089 0.243486 34.024200 -40.985400 0.000008 0.000006 4.709640 13.897100 -71.068900 -11.754300 -0.000006 -0.000006 -0.002368 -0.033228 -17.924300
0.000000 0.000000 0.000000 0.000000 0.000000 -0.000000 -0.127776 90.203400 -3.064890 89.039000 -3.610040 12.020200 15.735700 0.000005 -0.000001 89.027700 77.246800 -89.383600 8.984550 -0.406207 -0.000000 17.735700 -0.455930 -0.641983 16.377300 -0.000001 -0.000001 2.905490 -2.687740 0.786686 6.456720 -0.000001 -0.000000 -3.584940 -1.681420 1.900460 12.994200 -0.242716 4.980390 -91.047200 5.659060 -79.498100 5.348090 -0.000007 -0.000001 -57.258400 34.268900 -28.344700 24.328600 0.000019 0.000005 10.420800 20.841700 -27.334800 22.291600 -0.000001 0.000005 10.004900 5.220400 2.202480 12.994500 -0.242716 -4.980390 89.283900 10.462500 -86.062500 -5.348130 -0.000001 -0.000004 -58.747300 30.220900 -22.992800 -24.328900 0.000322 -0.000009 3.146200 5.243380 -31.034600 -22.291500 -0.000108 -0.000004 17.644900 5.388790 -2.576760 -2.192480 -6.469440 -0.000000 -173.749000 -13.663900 -2.037740 39.081100 -0.000007 -0.000012 -0.188486 0.269270 34.992000 40.985400 -0.000006 -0.000013 0.407974 4.681790 -70.515400 11.754300 -0.000000 0.000003 -0.000123 -0.001232 -16.624600 -2.192510 6.469440 -0.000001 174.114000 19.831000 179.217000 -39.081100 -0.002282 -0.040193 -0.166500 0.251663 34.007000 -40.985400 0.000008 0.000006 4.607490 13.930400 -71.015800 -11.754300 -0.000006 -0.000006 -0.002425 -0.033921 -17.952500
0.000000 0.000000 0.000000 0.000000 0.000000 -0.000000 -0.103892 90.209800 -3.084780 89.023700 -3.590970 11.981400 15.735700 0.000005 -0.000001 89.072700 77.239400 -89.411100 8.984550 -0.406207 -0.000000 17.751000 -0.435014 -0.610261 16.377300 -0.000001 -0.000001 2.974610 -2.672160 0.787428 6.456720 -0.000001 -0.000000 -3.710590 -1.705070 1.867410 12.994200 -0.242716 4.980390 -91.047300 5.618060 -79.422800 5.348090 -0.000007 -0.000001 -57.147200 33.681300 -28.414900 24.328600 0.000019 0.000005 11.265900 20.629600 -29.483200 22.291600 -0.000001 0.000005 10.253000 5.219890 2.215490 12.994500 -0.242716 -4.980390 89.266600 10.394600 -85.941600 -5.348130 -0.000001 -0.000004 -58.694600 29.563900 -23.158000 -24.328900 0.000322 -0.000009 3.438470 5.328630 -32.910600 -22.291500 -0.000108 -0.000004 18.035700 5.388480 -2.566790 -2.192480 -6.469440 -0.000000 -173.763000 -13.664200 -2.094630 39.081100 -0.000007 -0.000012 -0.190498 0.272251 34.981400 40.985400 -0.000006 -0.000013 0.426553 4.679140 -70.492300 11.754300 -0.000000 0.000003 -0.000128 -0.001266 -16.625900 -2.192510 6.469440 -0.000001 174.139000 19.846500 179.170000 -39.081100 -0.002282 -0.040193 -0.163437 0.247320 33.986000 -40.985400 0.000008 0.000006 4.661090 13.906400 -71.002000 -11.754300 -0.000006 -0.000006 -0.002230 -0.031560 -17.856400
0.000000 0.000000 0.000000 0.000000 0.000000 -0.000000 -0.078744 90.220000 -3.121490 89.032800 -3.549430 11.958500 15.735700 0.000005 -0.000001 89.105900 77.234900 -89.445300 8.984550 -0.406207 -0.000000 17.760300 -0.420724 -0.614279 16.377300 -0.000001 -0.000001 3.075080 -2.680360 0.841274 6.456720 -0.000001 -0.000000 -3.848520 -1.728020 1.834970 12.994200 -0.242716 4.980390 -91.042000 5.535520 -79.322500 5.348090 -0.000007 -0.000001 -57.186600 32.822800 -28.504100 24.328600 0.000019 0.000005 12.108300 20.269600 -31.767800 22.291600 -0.000001 0.000005 10.716200 5.217970 2.264590 12.994500 -0.242716 -4.980390 89.258200 10.306500 -85.861100 -5.348130 -0.000001 -0.000004 -58.724000 28.792200 -23.259200 -24.328900 0.000322 -0.000009 3.868110 5.538180 -35.022600 -22.291500 -0.000108 -0.000004 18.414800 5.393250 -2.719310 -2.192480 -6.469440 -0.000000 -173.815000 -13.652400 -2.136410 39.081100 -0.000007 -0.000012 -0.187642 0.268537 34.944600 40.985400 -0.000006 -0.000013 0.451700 4.672960 -70.447500 11.754300 -0.000000 0.000003 -0.000123 -0.001229 -16.624500 -2.192510 6.469440 -0.000001 174.120000 19.893800 179.137000 -39.081100 -0.002282 -0.040193 -0.162480 0.246266 33.946500 -40.985400 0.000008 0.000006 4.608550 13.925000 -70.937200 -11.754300 -0.000006 -0.000006 -0.002240 -0.031686 -17.861600
